<svg width="109" height="362" viewBox="0 0 109 362" fill="none" xmlns="http://www.w3.org/2000/svg">
<mask id="mask0_14_389" style="mask-type:alpha" maskUnits="userSpaceOnUse" x="0" y="105" width="53" height="237">
<path d="M0 116.45L26.0441 105.231L52.0883 116.45V331.214L26.0441 341.231L0 331.214V116.45Z" fill="#05030E"/>
</mask>
<g mask="url(#mask0_14_389)">
<path d="M0 154.689L26.0441 143.47L52.0883 154.689V369.453L26.0441 379.47L0 369.453V154.689Z" fill="#D5AB32"/>
<g opacity="0.25">
<path d="M0 133.854L26.0441 122.635L52.0883 133.854V348.618L26.0441 358.635L0 348.618V133.854Z" fill="#DC9839" fill-opacity="0.6"/>
<mask id="mask1_14_389" style="mask-type:alpha" maskUnits="userSpaceOnUse" x="0" y="122" width="53" height="237">
<path d="M0 133.854L26.0441 122.635L52.0883 133.854V348.618L26.0441 358.635L0 348.618V133.854Z" fill="#7EE8A0"/>
</mask>
<g mask="url(#mask1_14_389)">
<path d="M-18.4313 126.641L26.4448 143.871V359.035L-11.2191 344.611L-18.4313 126.641Z" fill="#DC9839" fill-opacity="0.6"/>
</g>
</g>
<g opacity="0.5">
<path d="M0 142.668L26.0441 131.449L52.0883 142.668V357.432L26.0441 367.449L0 357.432V142.668Z" fill="#DC9839" fill-opacity="0.6"/>
<mask id="mask2_14_389" style="mask-type:alpha" maskUnits="userSpaceOnUse" x="0" y="131" width="53" height="237">
<path d="M0 142.668L26.0441 131.449L52.0883 142.668V357.432L26.0441 367.449L0 357.432V142.668Z" fill="#7EE8A0"/>
</mask>
<g mask="url(#mask2_14_389)">
<path d="M-18.4313 135.456L26.4448 152.685V367.85L-11.2191 353.426L-18.4313 135.456Z" fill="#DC9839" fill-opacity="0.6"/>
</g>
</g>
</g>
<mask id="mask3_14_389" style="mask-type:alpha" maskUnits="userSpaceOnUse" x="0" y="105" width="53" height="237">
<path d="M0 116.45L26.0441 105.231L52.0883 116.45V331.214L26.0441 341.231L0 331.214V116.45Z" fill="#7EE8A0"/>
</mask>
<g mask="url(#mask3_14_389)">
<path d="M-18.4312 149.808L26.4448 167.037V382.202L-11.219 367.778L-18.4312 149.808Z" fill="#BF8C44" fill-opacity="0.6"/>
</g>
<mask id="mask4_14_389" style="mask-type:alpha" maskUnits="userSpaceOnUse" x="44" y="92" width="60" height="270">
<path d="M44 104.799L73.7114 92L103.423 104.799V349.803L73.7114 361.231L44 349.803V104.799Z" fill="#05030E"/>
</mask>
<g mask="url(#mask4_14_389)">
<path d="M44 134.799L73.7114 122L103.423 134.799V379.803L73.7114 391.231L44 379.803V134.799Z" fill="#7EE8A0"/>
<g opacity="0.25">
<path d="M44 111.03L73.7114 98.231L103.423 111.03V356.034L73.7114 367.462L44 356.034V111.03Z" fill="#7EE8A0"/>
<mask id="mask5_14_389" style="mask-type:alpha" maskUnits="userSpaceOnUse" x="44" y="98" width="60" height="270">
<path d="M44 111.03L73.7114 98.231L103.423 111.03V356.034L73.7114 367.462L44 356.034V111.03Z" fill="#7EE8A0"/>
</mask>
<g mask="url(#mask5_14_389)">
<path d="M22.9735 102.802L74.1685 122.457V367.919L31.2012 351.463L22.9735 102.802Z" fill="#75CF92"/>
</g>
</g>
<g opacity="0.5">
<path d="M44 121.086L73.7114 108.287L103.423 121.086V366.091L73.7114 377.518L44 366.091V121.086Z" fill="#7EE8A0"/>
<mask id="mask6_14_389" style="mask-type:alpha" maskUnits="userSpaceOnUse" x="44" y="108" width="60" height="270">
<path d="M44 121.086L73.7114 108.287L103.423 121.086V366.091L73.7114 377.518L44 366.091V121.086Z" fill="#7EE8A0"/>
</mask>
<g mask="url(#mask6_14_389)">
<path d="M22.9735 112.858L74.1685 132.513V377.975L31.2012 361.52L22.9735 112.858Z" fill="#75CF92"/>
</g>
</g>
</g>
<mask id="mask7_14_389" style="mask-type:alpha" maskUnits="userSpaceOnUse" x="44" y="92" width="60" height="270">
<path d="M44 104.799L73.7114 92L103.423 104.799V349.803L73.7114 361.231L44 349.803V104.799Z" fill="#7EE8A0"/>
</mask>
<g mask="url(#mask7_14_389)">
<path d="M22.9735 129.231L74.1685 148.886V394.348L31.2012 377.892L22.9735 129.231Z" fill="#75CF92"/>
</g>
<mask id="mask8_14_389" style="mask-type:alpha" maskUnits="userSpaceOnUse" x="44" y="35" width="60" height="270">
<path d="M44 47.7988L73.7114 35L103.423 47.7988V292.803L73.7114 304.231L44 292.803V47.7988Z" fill="#05030E"/>
</mask>
<g mask="url(#mask8_14_389)">
<path d="M44 77.7988L73.7114 65L103.423 77.7988V322.803L73.7114 334.231L44 322.803V77.7988Z" fill="#7EE8A0"/>
<g opacity="0.25">
<path d="M44 54.0297L73.7114 41.231L103.423 54.0297V299.034L73.7114 310.462L44 299.034V54.0297Z" fill="#7EE8A0"/>
<mask id="mask9_14_389" style="mask-type:alpha" maskUnits="userSpaceOnUse" x="44" y="41" width="60" height="270">
<path d="M44 54.0297L73.7114 41.231L103.423 54.0297V299.034L73.7114 310.462L44 299.034V54.0297Z" fill="#7EE8A0"/>
</mask>
<g mask="url(#mask9_14_389)">
<path d="M22.9735 45.802L74.1685 65.4572V310.919L31.2012 294.463L22.9735 45.802Z" fill="#75CF92"/>
</g>
</g>
<g opacity="0.5">
<path d="M44 64.0859L73.7114 51.2871L103.423 64.0859V309.091L73.7114 320.518L44 309.091V64.0859Z" fill="#7EE8A0"/>
<mask id="mask10_14_389" style="mask-type:alpha" maskUnits="userSpaceOnUse" x="44" y="51" width="60" height="270">
<path d="M44 64.0859L73.7114 51.2871L103.423 64.0859V309.091L73.7114 320.518L44 309.091V64.0859Z" fill="#7EE8A0"/>
</mask>
<g mask="url(#mask10_14_389)">
<path d="M22.9735 55.8582L74.1685 75.5134V320.975L31.2012 304.52L22.9735 55.8582Z" fill="#75CF92"/>
</g>
</g>
</g>
<mask id="mask11_14_389" style="mask-type:alpha" maskUnits="userSpaceOnUse" x="44" y="35" width="60" height="270">
<path d="M44 47.7988L73.7114 35L103.423 47.7988V292.803L73.7114 304.231L44 292.803V47.7988Z" fill="#7EE8A0"/>
</mask>
<g mask="url(#mask11_14_389)">
<path d="M22.9735 72.231L74.1685 91.8862V337.348L31.2012 320.892L22.9735 72.231Z" fill="#75CF92"/>
</g>
<path d="M52.488 16.832V20H39.792V17.48L46.272 11.36C46.96 10.704 47.424 10.144 47.664 9.68C47.904 9.2 48.024 8.728 48.024 8.264C48.024 7.592 47.792 7.08 47.328 6.728C46.88 6.36 46.216 6.176 45.336 6.176C44.6 6.176 43.936 6.32 43.344 6.608C42.752 6.88 42.256 7.296 41.856 7.856L39.024 6.032C39.68 5.056 40.584 4.296 41.736 3.752C42.888 3.192 44.208 2.912 45.696 2.912C46.944 2.912 48.032 3.12 48.96 3.536C49.904 3.936 50.632 4.512 51.144 5.264C51.672 6 51.936 6.872 51.936 7.88C51.936 8.792 51.744 9.648 51.36 10.448C50.976 11.248 50.232 12.16 49.128 13.184L45.264 16.832H52.488ZM66.6443 16.832V20H53.9482V17.48L60.4283 11.36C61.1163 10.704 61.5803 10.144 61.8203 9.68C62.0603 9.2 62.1803 8.728 62.1803 8.264C62.1803 7.592 61.9483 7.08 61.4843 6.728C61.0363 6.36 60.3723 6.176 59.4922 6.176C58.7563 6.176 58.0923 6.32 57.5003 6.608C56.9083 6.88 56.4123 7.296 56.0123 7.856L53.1803 6.032C53.8363 5.056 54.7403 4.296 55.8923 3.752C57.0443 3.192 58.3643 2.912 59.8523 2.912C61.1003 2.912 62.1883 3.12 63.1163 3.536C64.0603 3.936 64.7883 4.512 65.3003 5.264C65.8283 6 66.0923 6.872 66.0923 7.88C66.0923 8.792 65.9003 9.648 65.5163 10.448C65.1323 11.248 64.3883 12.16 63.2843 13.184L59.4203 16.832H66.6443ZM70.6909 20.192C70.0349 20.192 69.4829 19.968 69.0349 19.52C68.5869 19.072 68.3629 18.512 68.3629 17.84C68.3629 17.152 68.5869 16.6 69.0349 16.184C69.4829 15.752 70.0349 15.536 70.6909 15.536C71.3469 15.536 71.8989 15.752 72.3469 16.184C72.7949 16.6 73.0189 17.152 73.0189 17.84C73.0189 18.512 72.7949 19.072 72.3469 19.52C71.8989 19.968 71.3469 20.192 70.6909 20.192ZM80.5241 9.512C82.8921 9.512 84.6361 9.984 85.7561 10.928C86.8921 11.872 87.4601 13.136 87.4601 14.72C87.4601 15.744 87.2041 16.68 86.6921 17.528C86.1801 18.36 85.3961 19.032 84.3401 19.544C83.3001 20.04 82.0121 20.288 80.4761 20.288C79.2921 20.288 78.1241 20.136 76.9721 19.832C75.8361 19.512 74.8681 19.064 74.0681 18.488L75.6041 15.512C76.2441 15.992 76.9801 16.368 77.8121 16.64C78.6441 16.896 79.5001 17.024 80.3801 17.024C81.3561 17.024 82.1241 16.832 82.6841 16.448C83.2441 16.064 83.5241 15.528 83.5241 14.84C83.5241 14.12 83.2281 13.576 82.6361 13.208C82.0601 12.84 81.0521 12.656 79.6121 12.656H75.3161L76.1801 3.2H86.4281V6.32H79.4201L79.1561 9.512H80.5241ZM92.6912 12.272C91.4592 12.272 90.4512 11.856 89.6672 11.024C88.8992 10.176 88.5152 9.048 88.5152 7.64C88.5152 6.232 88.8992 5.112 89.6672 4.28C90.4512 3.432 91.4592 3.008 92.6912 3.008C93.9232 3.008 94.9232 3.432 95.6912 4.28C96.4592 5.112 96.8432 6.232 96.8432 7.64C96.8432 9.048 96.4592 10.176 95.6912 11.024C94.9232 11.856 93.9232 12.272 92.6912 12.272ZM102.699 3.2H105.555L94.0832 20H91.2272L102.699 3.2ZM92.6912 10.304C93.2352 10.304 93.6592 10.08 93.9632 9.632C94.2832 9.184 94.4432 8.52 94.4432 7.64C94.4432 6.76 94.2832 6.096 93.9632 5.648C93.6592 5.2 93.2352 4.976 92.6912 4.976C92.1632 4.976 91.7392 5.208 91.4192 5.672C91.0992 6.12 90.9392 6.776 90.9392 7.64C90.9392 8.504 91.0992 9.168 91.4192 9.632C91.7392 10.08 92.1632 10.304 92.6912 10.304ZM104.091 20.192C103.291 20.192 102.571 20.008 101.931 19.64C101.307 19.256 100.819 18.712 100.467 18.008C100.115 17.304 99.9392 16.488 99.9392 15.56C99.9392 14.632 100.115 13.816 100.467 13.112C100.819 12.408 101.307 11.872 101.931 11.504C102.571 11.12 103.291 10.928 104.091 10.928C105.323 10.928 106.323 11.352 107.091 12.2C107.875 13.032 108.267 14.152 108.267 15.56C108.267 16.968 107.875 18.096 107.091 18.944C106.323 19.776 105.323 20.192 104.091 20.192ZM104.091 18.224C104.635 18.224 105.059 18 105.363 17.552C105.683 17.088 105.843 16.424 105.843 15.56C105.843 14.696 105.683 14.04 105.363 13.592C105.059 13.128 104.635 12.896 104.091 12.896C103.563 12.896 103.139 13.12 102.819 13.568C102.499 14.016 102.339 14.68 102.339 15.56C102.339 16.44 102.499 17.104 102.819 17.552C103.139 18 103.563 18.224 104.091 18.224Z" fill="#A2DC89"/>
<path d="M9.253 94.1V106H6.499V96.31H4.119V94.1H9.253ZM15.4002 98.571C17.0776 98.571 18.3129 98.9053 19.1062 99.574C19.9109 100.243 20.3132 101.138 20.3132 102.26C20.3132 102.985 20.1319 103.648 19.7692 104.249C19.4066 104.838 18.8512 105.314 18.1032 105.677C17.3666 106.028 16.4542 106.204 15.3662 106.204C14.5276 106.204 13.7002 106.096 12.8842 105.881C12.0796 105.654 11.3939 105.337 10.8272 104.929L11.9152 102.821C12.3686 103.161 12.8899 103.427 13.4792 103.62C14.0686 103.801 14.6749 103.892 15.2982 103.892C15.9896 103.892 16.5336 103.756 16.9302 103.484C17.3269 103.212 17.5252 102.832 17.5252 102.345C17.5252 101.835 17.3156 101.45 16.8962 101.189C16.4882 100.928 15.7742 100.798 14.7542 100.798H11.7112L12.3232 94.1H19.5822V96.31H14.6182L14.4312 98.571H15.4002ZM24.0186 100.526C23.1459 100.526 22.4319 100.231 21.8766 99.642C21.3326 99.0413 21.0606 98.2423 21.0606 97.245C21.0606 96.2477 21.3326 95.4543 21.8766 94.865C22.4319 94.2643 23.1459 93.964 24.0186 93.964C24.8912 93.964 25.5996 94.2643 26.1436 94.865C26.6876 95.4543 26.9596 96.2477 26.9596 97.245C26.9596 98.2423 26.6876 99.0413 26.1436 99.642C25.5996 100.231 24.8912 100.526 24.0186 100.526ZM31.1076 94.1H33.1306L25.0046 106H22.9816L31.1076 94.1ZM24.0186 99.132C24.4039 99.132 24.7042 98.9733 24.9196 98.656C25.1462 98.3387 25.2596 97.8683 25.2596 97.245C25.2596 96.6217 25.1462 96.1513 24.9196 95.834C24.7042 95.5167 24.4039 95.358 24.0186 95.358C23.6446 95.358 23.3442 95.5223 23.1176 95.851C22.8909 96.1683 22.7776 96.633 22.7776 97.245C22.7776 97.857 22.8909 98.3273 23.1176 98.656C23.3442 98.9733 23.6446 99.132 24.0186 99.132ZM32.0936 106.136C31.5269 106.136 31.0169 106.006 30.5636 105.745C30.1216 105.473 29.7759 105.088 29.5266 104.589C29.2772 104.09 29.1526 103.512 29.1526 102.855C29.1526 102.198 29.2772 101.62 29.5266 101.121C29.7759 100.622 30.1216 100.243 30.5636 99.982C31.0169 99.71 31.5269 99.574 32.0936 99.574C32.9662 99.574 33.6746 99.8743 34.2186 100.475C34.7739 101.064 35.0516 101.858 35.0516 102.855C35.0516 103.852 34.7739 104.651 34.2186 105.252C33.6746 105.841 32.9662 106.136 32.0936 106.136ZM32.0936 104.742C32.4789 104.742 32.7792 104.583 32.9946 104.266C33.2212 103.937 33.3346 103.467 33.3346 102.855C33.3346 102.243 33.2212 101.778 32.9946 101.461C32.7792 101.132 32.4789 100.968 32.0936 100.968C31.7196 100.968 31.4192 101.127 31.1926 101.444C30.9659 101.761 30.8526 102.232 30.8526 102.855C30.8526 103.478 30.9659 103.949 31.1926 104.266C31.4192 104.583 31.7196 104.742 32.0936 104.742Z" fill="#E99A3D"/>
</svg>
