<svg width="104" height="270" viewBox="0 0 104 270" fill="none" xmlns="http://www.w3.org/2000/svg">
<mask id="mask0_14_313" style="mask-type:alpha" maskUnits="userSpaceOnUse" x="0" y="10" width="53" height="237">
<path d="M0 21.45L26.0441 10.231L52.0883 21.45V236.214L26.0441 246.231L0 236.214V21.45Z" fill="#05030E"/>
</mask>
<g mask="url(#mask0_14_313)">
<path d="M0 174.689L26.0441 163.47L52.0883 174.689V389.453L26.0441 399.47L0 389.453V174.689Z" fill="#D5AB32"/>
<g opacity="0.25">
<path d="M0 153.854L26.0441 142.635L52.0883 153.854V368.618L26.0441 378.635L0 368.618V153.854Z" fill="#DC9839" fill-opacity="0.6"/>
<mask id="mask1_14_313" style="mask-type:alpha" maskUnits="userSpaceOnUse" x="0" y="142" width="53" height="237">
<path d="M0 153.854L26.0441 142.635L52.0883 153.854V368.618L26.0441 378.635L0 368.618V153.854Z" fill="#7EE8A0"/>
</mask>
<g mask="url(#mask1_14_313)">
<path d="M-18.4313 146.641L26.4448 163.871V379.035L-11.2191 364.611L-18.4313 146.641Z" fill="#DC9839" fill-opacity="0.6"/>
</g>
</g>
<g opacity="0.5">
<path d="M0 162.668L26.0441 151.449L52.0883 162.668V377.432L26.0441 387.449L0 377.432V162.668Z" fill="#DC9839" fill-opacity="0.6"/>
<mask id="mask2_14_313" style="mask-type:alpha" maskUnits="userSpaceOnUse" x="0" y="151" width="53" height="237">
<path d="M0 162.668L26.0441 151.449L52.0883 162.668V377.432L26.0441 387.449L0 377.432V162.668Z" fill="#7EE8A0"/>
</mask>
<g mask="url(#mask2_14_313)">
<path d="M-18.4313 155.456L26.4448 172.685V387.85L-11.2191 373.426L-18.4313 155.456Z" fill="#DC9839" fill-opacity="0.6"/>
</g>
</g>
</g>
<mask id="mask3_14_313" style="mask-type:alpha" maskUnits="userSpaceOnUse" x="0" y="10" width="53" height="237">
<path d="M0 21.45L26.0441 10.231L52.0883 21.45V236.214L26.0441 246.231L0 236.214V21.45Z" fill="#7EE8A0"/>
</mask>
<g mask="url(#mask3_14_313)">
<path d="M-18.4312 169.808L26.4448 187.037V402.202L-11.219 387.778L-18.4312 169.808Z" fill="#BF8C44" fill-opacity="0.6"/>
</g>
<mask id="mask4_14_313" style="mask-type:alpha" maskUnits="userSpaceOnUse" x="44" y="0" width="60" height="270">
<path d="M44 12.7988L73.7114 0L103.423 12.7988V257.803L73.7114 269.231L44 257.803V12.7988Z" fill="#05030E"/>
</mask>
<g mask="url(#mask4_14_313)">
<path d="M44 164.799L73.7114 152L103.423 164.799V409.803L73.7114 421.231L44 409.803V164.799Z" fill="#7EE8A0"/>
<g opacity="0.25">
<path d="M44 141.03L73.7114 128.231L103.423 141.03V386.034L73.7114 397.462L44 386.034V141.03Z" fill="#7EE8A0"/>
<mask id="mask5_14_313" style="mask-type:alpha" maskUnits="userSpaceOnUse" x="44" y="128" width="60" height="270">
<path d="M44 141.03L73.7114 128.231L103.423 141.03V386.034L73.7114 397.462L44 386.034V141.03Z" fill="#7EE8A0"/>
</mask>
<g mask="url(#mask5_14_313)">
<path d="M22.9735 132.802L74.1685 152.457V397.919L31.2012 381.463L22.9735 132.802Z" fill="#75CF92"/>
</g>
</g>
<g opacity="0.5">
<path d="M44 151.086L73.7114 138.287L103.423 151.086V396.091L73.7114 407.518L44 396.091V151.086Z" fill="#7EE8A0"/>
<mask id="mask6_14_313" style="mask-type:alpha" maskUnits="userSpaceOnUse" x="44" y="138" width="60" height="270">
<path d="M44 151.086L73.7114 138.287L103.423 151.086V396.091L73.7114 407.518L44 396.091V151.086Z" fill="#7EE8A0"/>
</mask>
<g mask="url(#mask6_14_313)">
<path d="M22.9735 142.858L74.1685 162.513V407.975L31.2012 391.52L22.9735 142.858Z" fill="#75CF92"/>
</g>
</g>
</g>
<mask id="mask7_14_313" style="mask-type:alpha" maskUnits="userSpaceOnUse" x="44" y="0" width="60" height="270">
<path d="M44 12.7988L73.7114 0L103.423 12.7988V257.803L73.7114 269.231L44 257.803V12.7988Z" fill="#7EE8A0"/>
</mask>
<g mask="url(#mask7_14_313)">
<path d="M22.9735 159.231L74.1685 178.886V424.348L31.2012 407.892L22.9735 159.231Z" fill="#75CF92"/>
</g>
<path d="M62.84 91.912C65.192 91.912 67.032 92.632 68.36 94.072C69.688 95.496 70.352 97.552 70.352 100.24C70.352 102.144 69.992 103.776 69.272 105.136C68.568 106.496 67.568 107.528 66.272 108.232C64.976 108.936 63.48 109.288 61.784 109.288C60.888 109.288 60.032 109.192 59.216 109C58.4 108.792 57.704 108.504 57.128 108.136L58.568 105.28C59.384 105.84 60.432 106.12 61.712 106.12C63.136 106.12 64.264 105.704 65.096 104.872C65.928 104.024 66.376 102.808 66.44 101.224C65.432 102.232 64.04 102.736 62.264 102.736C61.192 102.736 60.216 102.52 59.336 102.088C58.456 101.656 57.76 101.048 57.248 100.264C56.736 99.464 56.48 98.544 56.48 97.504C56.48 96.384 56.76 95.4 57.32 94.552C57.88 93.704 58.64 93.056 59.6 92.608C60.576 92.144 61.656 91.912 62.84 91.912ZM63.128 99.832C63.976 99.832 64.664 99.6 65.192 99.136C65.736 98.656 66.008 98.048 66.008 97.312C66.008 96.576 65.744 95.976 65.216 95.512C64.704 95.048 63.992 94.816 63.08 94.816C62.248 94.816 61.568 95.04 61.04 95.488C60.528 95.936 60.272 96.544 60.272 97.312C60.272 98.08 60.528 98.696 61.04 99.16C61.568 99.608 62.264 99.832 63.128 99.832ZM76.1053 101.272C74.8733 101.272 73.8653 100.856 73.0813 100.024C72.3133 99.176 71.9293 98.048 71.9293 96.64C71.9293 95.232 72.3133 94.112 73.0813 93.28C73.8653 92.432 74.8733 92.008 76.1053 92.008C77.3373 92.008 78.3373 92.432 79.1053 93.28C79.8733 94.112 80.2573 95.232 80.2573 96.64C80.2573 98.048 79.8733 99.176 79.1053 100.024C78.3373 100.856 77.3373 101.272 76.1053 101.272ZM86.1133 92.2H88.9693L77.4973 109H74.6413L86.1133 92.2ZM76.1053 99.304C76.6493 99.304 77.0733 99.08 77.3773 98.632C77.6973 98.184 77.8573 97.52 77.8573 96.64C77.8573 95.76 77.6973 95.096 77.3773 94.648C77.0733 94.2 76.6493 93.976 76.1053 93.976C75.5773 93.976 75.1533 94.208 74.8333 94.672C74.5133 95.12 74.3533 95.776 74.3533 96.64C74.3533 97.504 74.5133 98.168 74.8333 98.632C75.1533 99.08 75.5773 99.304 76.1053 99.304ZM87.5053 109.192C86.7053 109.192 85.9853 109.008 85.3453 108.64C84.7213 108.256 84.2333 107.712 83.8813 107.008C83.5293 106.304 83.3533 105.488 83.3533 104.56C83.3533 103.632 83.5293 102.816 83.8813 102.112C84.2333 101.408 84.7213 100.872 85.3453 100.504C85.9853 100.12 86.7053 99.928 87.5053 99.928C88.7373 99.928 89.7373 100.352 90.5053 101.2C91.2893 102.032 91.6813 103.152 91.6813 104.56C91.6813 105.968 91.2893 107.096 90.5053 107.944C89.7373 108.776 88.7373 109.192 87.5053 109.192ZM87.5053 107.224C88.0493 107.224 88.4733 107 88.7773 106.552C89.0973 106.088 89.2573 105.424 89.2573 104.56C89.2573 103.696 89.0973 103.04 88.7773 102.592C88.4733 102.128 88.0493 101.896 87.5053 101.896C86.9773 101.896 86.5533 102.12 86.2333 102.568C85.9133 103.016 85.7533 103.68 85.7533 104.56C85.7533 105.44 85.9133 106.104 86.2333 106.552C86.5533 107 86.9773 107.224 87.5053 107.224Z" fill="#A2DC89"/>
<path d="M14.392 125.537C15.1513 125.537 15.8427 125.69 16.466 125.996C17.0893 126.302 17.5823 126.738 17.945 127.305C18.3077 127.86 18.489 128.506 18.489 129.243C18.489 130.036 18.2907 130.733 17.894 131.334C17.4973 131.935 16.9533 132.399 16.262 132.728C15.582 133.045 14.8227 133.204 13.984 133.204C12.318 133.204 11.0147 132.694 10.074 131.674C9.13333 130.654 8.663 129.198 8.663 127.305C8.663 125.956 8.918 124.8 9.428 123.837C9.938 122.874 10.6463 122.143 11.553 121.644C12.471 121.145 13.5307 120.896 14.732 120.896C15.3667 120.896 15.973 120.97 16.551 121.117C17.1403 121.253 17.639 121.451 18.047 121.712L17.027 123.735C16.4377 123.338 15.6953 123.14 14.8 123.14C13.7913 123.14 12.9923 123.435 12.403 124.024C11.8137 124.613 11.4963 125.469 11.451 126.591C12.1537 125.888 13.134 125.537 14.392 125.537ZM13.831 131.147C14.4203 131.147 14.8963 130.988 15.259 130.671C15.633 130.354 15.82 129.923 15.82 129.379C15.82 128.835 15.633 128.404 15.259 128.087C14.8963 127.758 14.409 127.594 13.797 127.594C13.1963 127.594 12.7033 127.764 12.318 128.104C11.9327 128.433 11.74 128.858 11.74 129.379C11.74 129.9 11.927 130.325 12.301 130.654C12.675 130.983 13.185 131.147 13.831 131.147ZM21.9092 127.526C21.0365 127.526 20.3225 127.231 19.7672 126.642C19.2232 126.041 18.9512 125.242 18.9512 124.245C18.9512 123.248 19.2232 122.454 19.7672 121.865C20.3225 121.264 21.0365 120.964 21.9092 120.964C22.7819 120.964 23.4902 121.264 24.0342 121.865C24.5782 122.454 24.8502 123.248 24.8502 124.245C24.8502 125.242 24.5782 126.041 24.0342 126.642C23.4902 127.231 22.7819 127.526 21.9092 127.526ZM28.9982 121.1H31.0212L22.8952 133H20.8722L28.9982 121.1ZM21.9092 126.132C22.2945 126.132 22.5949 125.973 22.8102 125.656C23.0369 125.339 23.1502 124.868 23.1502 124.245C23.1502 123.622 23.0369 123.151 22.8102 122.834C22.5949 122.517 22.2945 122.358 21.9092 122.358C21.5352 122.358 21.2349 122.522 21.0082 122.851C20.7815 123.168 20.6682 123.633 20.6682 124.245C20.6682 124.857 20.7815 125.327 21.0082 125.656C21.2349 125.973 21.5352 126.132 21.9092 126.132ZM29.9842 133.136C29.4175 133.136 28.9075 133.006 28.4542 132.745C28.0122 132.473 27.6665 132.088 27.4172 131.589C27.1679 131.09 27.0432 130.512 27.0432 129.855C27.0432 129.198 27.1679 128.62 27.4172 128.121C27.6665 127.622 28.0122 127.243 28.4542 126.982C28.9075 126.71 29.4175 126.574 29.9842 126.574C30.8569 126.574 31.5652 126.874 32.1092 127.475C32.6645 128.064 32.9422 128.858 32.9422 129.855C32.9422 130.852 32.6645 131.651 32.1092 132.252C31.5652 132.841 30.8569 133.136 29.9842 133.136ZM29.9842 131.742C30.3695 131.742 30.6699 131.583 30.8852 131.266C31.1119 130.937 31.2252 130.467 31.2252 129.855C31.2252 129.243 31.1119 128.778 30.8852 128.461C30.6699 128.132 30.3695 127.968 29.9842 127.968C29.6102 127.968 29.3099 128.127 29.0832 128.444C28.8565 128.761 28.7432 129.232 28.7432 129.855C28.7432 130.478 28.8565 130.949 29.0832 131.266C29.3099 131.583 29.6102 131.742 29.9842 131.742Z" fill="#E99A3D"/>
</svg>
