<svg width="104" height="270" viewBox="0 0 104 270" fill="none" xmlns="http://www.w3.org/2000/svg">
<mask id="mask0_14_314" style="mask-type:alpha" maskUnits="userSpaceOnUse" x="0" y="10" width="53" height="237">
<path d="M0 21.45L26.0441 10.231L52.0883 21.45V236.214L26.0441 246.231L0 236.214V21.45Z" fill="#05030E"/>
</mask>
<g mask="url(#mask0_14_314)">
<path d="M0 139.689L26.0441 128.47L52.0883 139.689V354.453L26.0441 364.47L0 354.453V139.689Z" fill="#D5AB32"/>
<g opacity="0.25">
<path d="M0 118.854L26.0441 107.635L52.0883 118.854V333.618L26.0441 343.635L0 333.618V118.854Z" fill="#DC9839" fill-opacity="0.6"/>
<mask id="mask1_14_314" style="mask-type:alpha" maskUnits="userSpaceOnUse" x="0" y="107" width="53" height="237">
<path d="M0 118.854L26.0441 107.635L52.0883 118.854V333.618L26.0441 343.635L0 333.618V118.854Z" fill="#7EE8A0"/>
</mask>
<g mask="url(#mask1_14_314)">
<path d="M-18.4313 111.641L26.4448 128.871V344.035L-11.2191 329.611L-18.4313 111.641Z" fill="#DC9839" fill-opacity="0.6"/>
</g>
</g>
<g opacity="0.5">
<path d="M0 127.668L26.0441 116.449L52.0883 127.668V342.432L26.0441 352.449L0 342.432V127.668Z" fill="#DC9839" fill-opacity="0.6"/>
<mask id="mask2_14_314" style="mask-type:alpha" maskUnits="userSpaceOnUse" x="0" y="116" width="53" height="237">
<path d="M0 127.668L26.0441 116.449L52.0883 127.668V342.432L26.0441 352.449L0 342.432V127.668Z" fill="#7EE8A0"/>
</mask>
<g mask="url(#mask2_14_314)">
<path d="M-18.4313 120.456L26.4448 137.685V352.85L-11.2191 338.426L-18.4313 120.456Z" fill="#DC9839" fill-opacity="0.6"/>
</g>
</g>
</g>
<mask id="mask3_14_314" style="mask-type:alpha" maskUnits="userSpaceOnUse" x="0" y="10" width="53" height="237">
<path d="M0 21.45L26.0441 10.231L52.0883 21.45V236.214L26.0441 246.231L0 236.214V21.45Z" fill="#7EE8A0"/>
</mask>
<g mask="url(#mask3_14_314)">
<path d="M-18.4312 134.808L26.4448 152.037V367.202L-11.219 352.778L-18.4312 134.808Z" fill="#BF8C44" fill-opacity="0.6"/>
</g>
<mask id="mask4_14_314" style="mask-type:alpha" maskUnits="userSpaceOnUse" x="44" y="0" width="60" height="270">
<path d="M44 12.7988L73.7114 0L103.423 12.7988V257.803L73.7114 269.231L44 257.803V12.7988Z" fill="#05030E"/>
</mask>
<g mask="url(#mask4_14_314)">
<path d="M44 126.799L73.7114 114L103.423 126.799V371.803L73.7114 383.231L44 371.803V126.799Z" fill="#7EE8A0"/>
<g opacity="0.25">
<path d="M44 103.03L73.7114 90.231L103.423 103.03V348.034L73.7114 359.462L44 348.034V103.03Z" fill="#7EE8A0"/>
<mask id="mask5_14_314" style="mask-type:alpha" maskUnits="userSpaceOnUse" x="44" y="90" width="60" height="270">
<path d="M44 103.03L73.7114 90.231L103.423 103.03V348.034L73.7114 359.462L44 348.034V103.03Z" fill="#7EE8A0"/>
</mask>
<g mask="url(#mask5_14_314)">
<path d="M22.9735 94.802L74.1685 114.457V359.919L31.2012 343.463L22.9735 94.802Z" fill="#75CF92"/>
</g>
</g>
<g opacity="0.5">
<path d="M44 113.086L73.7114 100.287L103.423 113.086V358.091L73.7114 369.518L44 358.091V113.086Z" fill="#7EE8A0"/>
<mask id="mask6_14_314" style="mask-type:alpha" maskUnits="userSpaceOnUse" x="44" y="100" width="60" height="270">
<path d="M44 113.086L73.7114 100.287L103.423 113.086V358.091L73.7114 369.518L44 358.091V113.086Z" fill="#7EE8A0"/>
</mask>
<g mask="url(#mask6_14_314)">
<path d="M22.9735 104.858L74.1685 124.513V369.975L31.2012 353.52L22.9735 104.858Z" fill="#75CF92"/>
</g>
</g>
</g>
<mask id="mask7_14_314" style="mask-type:alpha" maskUnits="userSpaceOnUse" x="44" y="0" width="60" height="270">
<path d="M44 12.7988L73.7114 0L103.423 12.7988V257.803L73.7114 269.231L44 257.803V12.7988Z" fill="#7EE8A0"/>
</mask>
<g mask="url(#mask7_14_314)">
<path d="M22.9735 121.231L74.1685 140.886V386.348L31.2012 369.892L22.9735 121.231Z" fill="#75CF92"/>
</g>
<path d="M59.416 54.2V71H55.528V57.32H52.168V54.2H59.416ZM74.8864 67.832V71H62.1904V68.48L68.6704 62.36C69.3584 61.704 69.8224 61.144 70.0624 60.68C70.3024 60.2 70.4224 59.728 70.4224 59.264C70.4224 58.592 70.1904 58.08 69.7264 57.728C69.2784 57.36 68.6144 57.176 67.7344 57.176C66.9984 57.176 66.3344 57.32 65.7424 57.608C65.1504 57.88 64.6544 58.296 64.2544 58.856L61.4224 57.032C62.0784 56.056 62.9824 55.296 64.1344 54.752C65.2864 54.192 66.6064 53.912 68.0944 53.912C69.3424 53.912 70.4304 54.12 71.3584 54.536C72.3024 54.936 73.0304 55.512 73.5424 56.264C74.0704 57 74.3344 57.872 74.3344 58.88C74.3344 59.792 74.1424 60.648 73.7584 61.448C73.3744 62.248 72.6304 63.16 71.5264 64.184L67.6624 67.832H74.8864ZM80.6131 63.272C79.3811 63.272 78.3731 62.856 77.5891 62.024C76.8211 61.176 76.4371 60.048 76.4371 58.64C76.4371 57.232 76.8211 56.112 77.5891 55.28C78.3731 54.432 79.3811 54.008 80.6131 54.008C81.8451 54.008 82.8451 54.432 83.6131 55.28C84.3811 56.112 84.7651 57.232 84.7651 58.64C84.7651 60.048 84.3811 61.176 83.6131 62.024C82.8451 62.856 81.8451 63.272 80.6131 63.272ZM90.6211 54.2H93.4771L82.0051 71H79.1491L90.6211 54.2ZM80.6131 61.304C81.1571 61.304 81.5811 61.08 81.8851 60.632C82.2051 60.184 82.3651 59.52 82.3651 58.64C82.3651 57.76 82.2051 57.096 81.8851 56.648C81.5811 56.2 81.1571 55.976 80.6131 55.976C80.0851 55.976 79.6611 56.208 79.3411 56.672C79.0211 57.12 78.8611 57.776 78.8611 58.64C78.8611 59.504 79.0211 60.168 79.3411 60.632C79.6611 61.08 80.0851 61.304 80.6131 61.304ZM92.0131 71.192C91.2131 71.192 90.4931 71.008 89.8531 70.64C89.2291 70.256 88.7411 69.712 88.3891 69.008C88.0371 68.304 87.8611 67.488 87.8611 66.56C87.8611 65.632 88.0371 64.816 88.3891 64.112C88.7411 63.408 89.2291 62.872 89.8531 62.504C90.4931 62.12 91.2131 61.928 92.0131 61.928C93.2451 61.928 94.2451 62.352 95.0131 63.2C95.7971 64.032 96.1891 65.152 96.1891 66.56C96.1891 67.968 95.7971 69.096 95.0131 69.944C94.2451 70.776 93.2451 71.192 92.0131 71.192ZM92.0131 69.224C92.5571 69.224 92.9811 69 93.2851 68.552C93.6051 68.088 93.7651 67.424 93.7651 66.56C93.7651 65.696 93.6051 65.04 93.2851 64.592C92.9811 64.128 92.5571 63.896 92.0131 63.896C91.4851 63.896 91.0611 64.12 90.7411 64.568C90.4211 65.016 90.2611 65.68 90.2611 66.56C90.2611 67.44 90.4211 68.104 90.7411 68.552C91.0611 69 91.4851 69.224 92.0131 69.224Z" fill="#A2DC89"/>
<path d="M16.806 88.744C17.3953 89.0387 17.843 89.424 18.149 89.9C18.4663 90.376 18.625 90.9257 18.625 91.549C18.625 92.2857 18.4153 92.9317 17.996 93.487C17.5767 94.031 16.9873 94.456 16.228 94.762C15.4687 95.0567 14.5903 95.204 13.593 95.204C12.5957 95.204 11.7173 95.0567 10.958 94.762C10.21 94.456 9.62633 94.031 9.207 93.487C8.799 92.9317 8.595 92.2857 8.595 91.549C8.595 90.9257 8.748 90.376 9.054 89.9C9.37133 89.424 9.819 89.0387 10.397 88.744C9.955 88.472 9.615 88.132 9.377 87.724C9.139 87.3047 9.02 86.8287 9.02 86.296C9.02 85.6047 9.21267 85.004 9.598 84.494C9.98333 83.984 10.5217 83.593 11.213 83.321C11.9043 83.0377 12.6977 82.896 13.593 82.896C14.4997 82.896 15.2987 83.0377 15.99 83.321C16.6927 83.593 17.2367 83.984 17.622 84.494C18.0073 85.004 18.2 85.6047 18.2 86.296C18.2 86.8287 18.081 87.3047 17.843 87.724C17.605 88.132 17.2593 88.472 16.806 88.744ZM13.593 84.919C13.0377 84.919 12.59 85.055 12.25 85.327C11.9213 85.5877 11.757 85.9503 11.757 86.415C11.757 86.8683 11.9213 87.2253 12.25 87.486C12.5787 87.7467 13.0263 87.877 13.593 87.877C14.1597 87.877 14.613 87.7467 14.953 87.486C15.293 87.2253 15.463 86.8683 15.463 86.415C15.463 85.9503 15.293 85.5877 14.953 85.327C14.613 85.055 14.1597 84.919 13.593 84.919ZM13.593 93.181C14.2843 93.181 14.8283 93.028 15.225 92.722C15.633 92.4047 15.837 91.9853 15.837 91.464C15.837 90.9427 15.633 90.529 15.225 90.223C14.8283 89.917 14.2843 89.764 13.593 89.764C12.913 89.764 12.3747 89.917 11.978 90.223C11.5813 90.529 11.383 90.9427 11.383 91.464C11.383 91.9967 11.5813 92.416 11.978 92.722C12.3747 93.028 12.913 93.181 13.593 93.181ZM22.4736 89.526C21.601 89.526 20.887 89.2313 20.3316 88.642C19.7876 88.0413 19.5156 87.2423 19.5156 86.245C19.5156 85.2477 19.7876 84.4543 20.3316 83.865C20.887 83.2643 21.601 82.964 22.4736 82.964C23.3463 82.964 24.0546 83.2643 24.5986 83.865C25.1426 84.4543 25.4146 85.2477 25.4146 86.245C25.4146 87.2423 25.1426 88.0413 24.5986 88.642C24.0546 89.2313 23.3463 89.526 22.4736 89.526ZM29.5626 83.1H31.5856L23.4596 95H21.4366L29.5626 83.1ZM22.4736 88.132C22.859 88.132 23.1593 87.9733 23.3746 87.656C23.6013 87.3387 23.7146 86.8683 23.7146 86.245C23.7146 85.6217 23.6013 85.1513 23.3746 84.834C23.1593 84.5167 22.859 84.358 22.4736 84.358C22.0996 84.358 21.7993 84.5223 21.5726 84.851C21.346 85.1683 21.2326 85.633 21.2326 86.245C21.2326 86.857 21.346 87.3273 21.5726 87.656C21.7993 87.9733 22.0996 88.132 22.4736 88.132ZM30.5486 95.136C29.982 95.136 29.472 95.0057 29.0186 94.745C28.5766 94.473 28.231 94.0877 27.9816 93.589C27.7323 93.0903 27.6076 92.5123 27.6076 91.855C27.6076 91.1977 27.7323 90.6197 27.9816 90.121C28.231 89.6223 28.5766 89.2427 29.0186 88.982C29.472 88.71 29.982 88.574 30.5486 88.574C31.4213 88.574 32.1296 88.8743 32.6736 89.475C33.229 90.0643 33.5066 90.8577 33.5066 91.855C33.5066 92.8523 33.229 93.6513 32.6736 94.252C32.1296 94.8413 31.4213 95.136 30.5486 95.136ZM30.5486 93.742C30.934 93.742 31.2343 93.5833 31.4496 93.266C31.6763 92.9373 31.7896 92.467 31.7896 91.855C31.7896 91.243 31.6763 90.7783 31.4496 90.461C31.2343 90.1323 30.934 89.968 30.5486 89.968C30.1746 89.968 29.8743 90.1267 29.6476 90.444C29.421 90.7613 29.3076 91.2317 29.3076 91.855C29.3076 92.4783 29.421 92.9487 29.6476 93.266C29.8743 93.5833 30.1746 93.742 30.5486 93.742Z" fill="#E99A3D"/>
</svg>
