<svg width="104" height="295" viewBox="0 0 104 295" fill="none" xmlns="http://www.w3.org/2000/svg">
<mask id="mask0_14_352" style="mask-type:alpha" maskUnits="userSpaceOnUse" x="0" y="35" width="53" height="237">
<path d="M0 46.45L26.0441 35.231L52.0883 46.45V261.214L26.0441 271.231L0 261.214V46.45Z" fill="#05030E"/>
</mask>
<g mask="url(#mask0_14_352)">
<path d="M0 117.689L26.0441 106.47L52.0883 117.689V332.453L26.0441 342.47L0 332.453V117.689Z" fill="#D5AB32"/>
<g opacity="0.25">
<path d="M0 96.8535L26.0441 85.6345L52.0883 96.8535V311.618L26.0441 321.635L0 311.618V96.8535Z" fill="#DC9839" fill-opacity="0.6"/>
<mask id="mask1_14_352" style="mask-type:alpha" maskUnits="userSpaceOnUse" x="0" y="85" width="53" height="237">
<path d="M0 96.8535L26.0441 85.6345L52.0883 96.8535V311.618L26.0441 321.635L0 311.618V96.8535Z" fill="#7EE8A0"/>
</mask>
<g mask="url(#mask1_14_352)">
<path d="M-18.4313 89.6414L26.4448 106.871V322.035L-11.219 307.611L-18.4313 89.6414Z" fill="#DC9839" fill-opacity="0.6"/>
</g>
</g>
<g opacity="0.5">
<path d="M0 105.668L26.0441 94.4495L52.0883 105.668V320.432L26.0441 330.449L0 320.432V105.668Z" fill="#DC9839" fill-opacity="0.6"/>
<mask id="mask2_14_352" style="mask-type:alpha" maskUnits="userSpaceOnUse" x="0" y="94" width="53" height="237">
<path d="M0 105.668L26.0441 94.4495L52.0883 105.668V320.432L26.0441 330.449L0 320.432V105.668Z" fill="#7EE8A0"/>
</mask>
<g mask="url(#mask2_14_352)">
<path d="M-18.4313 98.4563L26.4448 115.685V330.85L-11.219 316.426L-18.4313 98.4563Z" fill="#DC9839" fill-opacity="0.6"/>
</g>
</g>
</g>
<mask id="mask3_14_352" style="mask-type:alpha" maskUnits="userSpaceOnUse" x="0" y="35" width="53" height="237">
<path d="M0 46.45L26.0441 35.231L52.0883 46.45V261.214L26.0441 271.231L0 261.214V46.45Z" fill="#7EE8A0"/>
</mask>
<g mask="url(#mask3_14_352)">
<path d="M-18.4312 112.808L26.4448 130.037V345.202L-11.219 330.778L-18.4312 112.808Z" fill="#BF8C44" fill-opacity="0.6"/>
</g>
<mask id="mask4_14_352" style="mask-type:alpha" maskUnits="userSpaceOnUse" x="44" y="25" width="60" height="270">
<path d="M44 37.7988L73.7114 25L103.423 37.7988V282.803L73.7114 294.231L44 282.803V37.7988Z" fill="#05030E"/>
</mask>
<g mask="url(#mask4_14_352)">
<path d="M44 75.7988L73.7114 63L103.423 75.7988V320.803L73.7114 332.231L44 320.803V75.7988Z" fill="#7EE8A0"/>
<g opacity="0.25">
<path d="M44 52.0297L73.7114 39.231L103.423 52.0297V297.034L73.7114 308.462L44 297.034V52.0297Z" fill="#7EE8A0"/>
<mask id="mask5_14_352" style="mask-type:alpha" maskUnits="userSpaceOnUse" x="44" y="39" width="60" height="270">
<path d="M44 52.0297L73.7114 39.231L103.423 52.0297V297.034L73.7114 308.462L44 297.034V52.0297Z" fill="#7EE8A0"/>
</mask>
<g mask="url(#mask5_14_352)">
<path d="M22.9735 43.802L74.1685 63.4572V308.919L31.2012 292.463L22.9735 43.802Z" fill="#75CF92"/>
</g>
</g>
<g opacity="0.5">
<path d="M44 62.0859L73.7114 49.2871L103.423 62.0859V307.091L73.7114 318.518L44 307.091V62.0859Z" fill="#7EE8A0"/>
<mask id="mask6_14_352" style="mask-type:alpha" maskUnits="userSpaceOnUse" x="44" y="49" width="60" height="270">
<path d="M44 62.0859L73.7114 49.2871L103.423 62.0859V307.091L73.7114 318.518L44 307.091V62.0859Z" fill="#7EE8A0"/>
</mask>
<g mask="url(#mask6_14_352)">
<path d="M22.9735 53.8582L74.1685 73.5134V318.975L31.2012 302.52L22.9735 53.8582Z" fill="#75CF92"/>
</g>
</g>
</g>
<mask id="mask7_14_352" style="mask-type:alpha" maskUnits="userSpaceOnUse" x="44" y="25" width="60" height="270">
<path d="M44 37.7988L73.7114 25L103.423 37.7988V282.803L73.7114 294.231L44 282.803V37.7988Z" fill="#7EE8A0"/>
</mask>
<g mask="url(#mask7_14_352)">
<path d="M22.9735 70.231L74.1685 89.8862V335.348L31.2012 318.892L22.9735 70.231Z" fill="#75CF92"/>
</g>
<path d="M59.416 3.2V20H55.528V6.32H52.168V3.2H59.416ZM73.8304 11.168C74.6624 11.584 75.2944 12.128 75.7264 12.8C76.1744 13.472 76.3984 14.248 76.3984 15.128C76.3984 16.168 76.1024 17.08 75.5104 17.864C74.9184 18.632 74.0864 19.232 73.0144 19.664C71.9424 20.08 70.7024 20.288 69.2944 20.288C67.8864 20.288 66.6464 20.08 65.5744 19.664C64.5184 19.232 63.6944 18.632 63.1024 17.864C62.5264 17.08 62.2384 16.168 62.2384 15.128C62.2384 14.248 62.4544 13.472 62.8864 12.8C63.3344 12.128 63.9664 11.584 64.7824 11.168C64.1584 10.784 63.6784 10.304 63.3424 9.728C63.0064 9.136 62.8384 8.464 62.8384 7.712C62.8384 6.736 63.1104 5.888 63.6544 5.168C64.1984 4.448 64.9584 3.896 65.9344 3.512C66.9104 3.112 68.0304 2.912 69.2944 2.912C70.5744 2.912 71.7024 3.112 72.6784 3.512C73.6704 3.896 74.4384 4.448 74.9824 5.168C75.5264 5.888 75.7984 6.736 75.7984 7.712C75.7984 8.464 75.6304 9.136 75.2944 9.728C74.9584 10.304 74.4704 10.784 73.8304 11.168ZM69.2944 5.768C68.5104 5.768 67.8784 5.96 67.3984 6.344C66.9344 6.712 66.7024 7.224 66.7024 7.88C66.7024 8.52 66.9344 9.024 67.3984 9.392C67.8624 9.76 68.4944 9.944 69.2944 9.944C70.0944 9.944 70.7344 9.76 71.2144 9.392C71.6944 9.024 71.9344 8.52 71.9344 7.88C71.9344 7.224 71.6944 6.712 71.2144 6.344C70.7344 5.96 70.0944 5.768 69.2944 5.768ZM69.2944 17.432C70.2704 17.432 71.0384 17.216 71.5984 16.784C72.1744 16.336 72.4624 15.744 72.4624 15.008C72.4624 14.272 72.1744 13.688 71.5984 13.256C71.0384 12.824 70.2704 12.608 69.2944 12.608C68.3344 12.608 67.5744 12.824 67.0144 13.256C66.4544 13.688 66.1744 14.272 66.1744 15.008C66.1744 15.76 66.4544 16.352 67.0144 16.784C67.5744 17.216 68.3344 17.432 69.2944 17.432ZM81.8318 12.272C80.5998 12.272 79.5918 11.856 78.8078 11.024C78.0398 10.176 77.6558 9.048 77.6558 7.64C77.6558 6.232 78.0398 5.112 78.8078 4.28C79.5918 3.432 80.5998 3.008 81.8318 3.008C83.0638 3.008 84.0638 3.432 84.8318 4.28C85.5998 5.112 85.9838 6.232 85.9838 7.64C85.9838 9.048 85.5998 10.176 84.8318 11.024C84.0638 11.856 83.0638 12.272 81.8318 12.272ZM91.8398 3.2H94.6958L83.2238 20H80.3678L91.8398 3.2ZM81.8318 10.304C82.3758 10.304 82.7998 10.08 83.1038 9.632C83.4238 9.184 83.5838 8.52 83.5838 7.64C83.5838 6.76 83.4238 6.096 83.1038 5.648C82.7998 5.2 82.3758 4.976 81.8318 4.976C81.3038 4.976 80.8798 5.208 80.5598 5.672C80.2398 6.12 80.0798 6.776 80.0798 7.64C80.0798 8.504 80.2398 9.168 80.5598 9.632C80.8798 10.08 81.3038 10.304 81.8318 10.304ZM93.2318 20.192C92.4318 20.192 91.7118 20.008 91.0718 19.64C90.4478 19.256 89.9598 18.712 89.6078 18.008C89.2558 17.304 89.0798 16.488 89.0798 15.56C89.0798 14.632 89.2558 13.816 89.6078 13.112C89.9598 12.408 90.4478 11.872 91.0718 11.504C91.7118 11.12 92.4318 10.928 93.2318 10.928C94.4638 10.928 95.4638 11.352 96.2318 12.2C97.0158 13.032 97.4078 14.152 97.4078 15.56C97.4078 16.968 97.0158 18.096 96.2318 18.944C95.4638 19.776 94.4638 20.192 93.2318 20.192ZM93.2318 18.224C93.7758 18.224 94.1998 18 94.5038 17.552C94.8238 17.088 94.9838 16.424 94.9838 15.56C94.9838 14.696 94.8238 14.04 94.5038 13.592C94.1998 13.128 93.7758 12.896 93.2318 12.896C92.7038 12.896 92.2798 13.12 91.9598 13.568C91.6398 14.016 91.4798 14.68 91.4798 15.56C91.4798 16.44 91.6398 17.104 91.9598 17.552C92.2798 18 92.7038 18.224 93.2318 18.224Z" fill="#A2DC89"/>
<path d="M9.253 57.1V69H6.499V59.31H4.119V57.1H9.253ZM20.2112 66.756V69H11.2182V67.215L15.8082 62.88C16.2956 62.4153 16.6242 62.0187 16.7942 61.69C16.9642 61.35 17.0492 61.0157 17.0492 60.687C17.0492 60.211 16.8849 59.8483 16.5562 59.599C16.2389 59.3383 15.7686 59.208 15.1452 59.208C14.6239 59.208 14.1536 59.31 13.7342 59.514C13.3149 59.7067 12.9636 60.0013 12.6802 60.398L10.6742 59.106C11.1389 58.4147 11.7792 57.8763 12.5952 57.491C13.4112 57.0943 14.3462 56.896 15.4002 56.896C16.2842 56.896 17.0549 57.0433 17.7122 57.338C18.3809 57.6213 18.8966 58.0293 19.2592 58.562C19.6332 59.0833 19.8202 59.701 19.8202 60.415C19.8202 61.061 19.6842 61.6673 19.4122 62.234C19.1402 62.8007 18.6132 63.4467 17.8312 64.172L15.0942 66.756H20.2112ZM24.2676 63.526C23.3949 63.526 22.6809 63.2313 22.1256 62.642C21.5816 62.0413 21.3096 61.2423 21.3096 60.245C21.3096 59.2477 21.5816 58.4543 22.1256 57.865C22.6809 57.2643 23.3949 56.964 24.2676 56.964C25.1403 56.964 25.8486 57.2643 26.3926 57.865C26.9366 58.4543 27.2086 59.2477 27.2086 60.245C27.2086 61.2423 26.9366 62.0413 26.3926 62.642C25.8486 63.2313 25.1403 63.526 24.2676 63.526ZM31.3566 57.1H33.3796L25.2536 69H23.2306L31.3566 57.1ZM24.2676 62.132C24.6529 62.132 24.9533 61.9733 25.1686 61.656C25.3953 61.3387 25.5086 60.8683 25.5086 60.245C25.5086 59.6217 25.3953 59.1513 25.1686 58.834C24.9533 58.5167 24.6529 58.358 24.2676 58.358C23.8936 58.358 23.5933 58.5223 23.3666 58.851C23.1399 59.1683 23.0266 59.633 23.0266 60.245C23.0266 60.857 23.1399 61.3273 23.3666 61.656C23.5933 61.9733 23.8936 62.132 24.2676 62.132ZM32.3426 69.136C31.7759 69.136 31.2659 69.0057 30.8126 68.745C30.3706 68.473 30.0249 68.0877 29.7756 67.589C29.5263 67.0903 29.4016 66.5123 29.4016 65.855C29.4016 65.1977 29.5263 64.6197 29.7756 64.121C30.0249 63.6223 30.3706 63.2427 30.8126 62.982C31.2659 62.71 31.7759 62.574 32.3426 62.574C33.2153 62.574 33.9236 62.8743 34.4676 63.475C35.0229 64.0643 35.3006 64.8577 35.3006 65.855C35.3006 66.8523 35.0229 67.6513 34.4676 68.252C33.9236 68.8413 33.2153 69.136 32.3426 69.136ZM32.3426 67.742C32.7279 67.742 33.0283 67.5833 33.2436 67.266C33.4703 66.9373 33.5836 66.467 33.5836 65.855C33.5836 65.243 33.4703 64.7783 33.2436 64.461C33.0283 64.1323 32.7279 63.968 32.3426 63.968C31.9686 63.968 31.6683 64.1267 31.4416 64.444C31.2149 64.7613 31.1016 65.2317 31.1016 65.855C31.1016 66.4783 31.2149 66.9487 31.4416 67.266C31.6683 67.5833 31.9686 67.742 32.3426 67.742Z" fill="#E99A3D"/>
</svg>
