<svg width="104" height="270" viewBox="0 0 104 270" fill="none" xmlns="http://www.w3.org/2000/svg">
<mask id="mask0_14_315" style="mask-type:alpha" maskUnits="userSpaceOnUse" x="0" y="10" width="53" height="237">
<path d="M0 21.45L26.0441 10.231L52.0883 21.45V236.214L26.0441 246.231L0 236.214V21.45Z" fill="#05030E"/>
</mask>
<g mask="url(#mask0_14_315)">
<path d="M0 119.689L26.0441 108.47L52.0883 119.689V334.453L26.0441 344.47L0 334.453V119.689Z" fill="#D5AB32"/>
<g opacity="0.25">
<path d="M0 98.8535L26.0441 87.6345L52.0883 98.8535V313.618L26.0441 323.635L0 313.618V98.8535Z" fill="#DC9839" fill-opacity="0.6"/>
<mask id="mask1_14_315" style="mask-type:alpha" maskUnits="userSpaceOnUse" x="0" y="87" width="53" height="237">
<path d="M0 98.8535L26.0441 87.6345L52.0883 98.8535V313.618L26.0441 323.635L0 313.618V98.8535Z" fill="#7EE8A0"/>
</mask>
<g mask="url(#mask1_14_315)">
<path d="M-18.4313 91.6414L26.4448 108.871V324.035L-11.219 309.611L-18.4313 91.6414Z" fill="#DC9839" fill-opacity="0.6"/>
</g>
</g>
<g opacity="0.5">
<path d="M0 107.668L26.0441 96.4495L52.0883 107.668V322.432L26.0441 332.449L0 322.432V107.668Z" fill="#DC9839" fill-opacity="0.6"/>
<mask id="mask2_14_315" style="mask-type:alpha" maskUnits="userSpaceOnUse" x="0" y="96" width="53" height="237">
<path d="M0 107.668L26.0441 96.4495L52.0883 107.668V322.432L26.0441 332.449L0 322.432V107.668Z" fill="#7EE8A0"/>
</mask>
<g mask="url(#mask2_14_315)">
<path d="M-18.4313 100.456L26.4448 117.685V332.85L-11.219 318.426L-18.4313 100.456Z" fill="#DC9839" fill-opacity="0.6"/>
</g>
</g>
</g>
<mask id="mask3_14_315" style="mask-type:alpha" maskUnits="userSpaceOnUse" x="0" y="10" width="53" height="237">
<path d="M0 21.45L26.0441 10.231L52.0883 21.45V236.214L26.0441 246.231L0 236.214V21.45Z" fill="#7EE8A0"/>
</mask>
<g mask="url(#mask3_14_315)">
<path d="M-18.4312 114.808L26.4448 132.037V347.202L-11.219 332.778L-18.4312 114.808Z" fill="#BF8C44" fill-opacity="0.6"/>
</g>
<mask id="mask4_14_315" style="mask-type:alpha" maskUnits="userSpaceOnUse" x="44" y="0" width="60" height="270">
<path d="M44 12.7988L73.7114 0L103.423 12.7988V257.803L73.7114 269.231L44 257.803V12.7988Z" fill="#05030E"/>
</mask>
<g mask="url(#mask4_14_315)">
<path d="M44 90.7988L73.7114 78L103.423 90.7988V335.803L73.7114 347.231L44 335.803V90.7988Z" fill="#7EE8A0"/>
<g opacity="0.25">
<path d="M44 67.0297L73.7114 54.231L103.423 67.0297V312.034L73.7114 323.462L44 312.034V67.0297Z" fill="#7EE8A0"/>
<mask id="mask5_14_315" style="mask-type:alpha" maskUnits="userSpaceOnUse" x="44" y="54" width="60" height="270">
<path d="M44 67.0297L73.7114 54.231L103.423 67.0297V312.034L73.7114 323.462L44 312.034V67.0297Z" fill="#7EE8A0"/>
</mask>
<g mask="url(#mask5_14_315)">
<path d="M22.9735 58.802L74.1685 78.4572V323.919L31.2012 307.463L22.9735 58.802Z" fill="#75CF92"/>
</g>
</g>
<g opacity="0.5">
<path d="M44 77.0859L73.7114 64.2871L103.423 77.0859V322.091L73.7114 333.518L44 322.091V77.0859Z" fill="#7EE8A0"/>
<mask id="mask6_14_315" style="mask-type:alpha" maskUnits="userSpaceOnUse" x="44" y="64" width="60" height="270">
<path d="M44 77.0859L73.7114 64.2871L103.423 77.0859V322.091L73.7114 333.518L44 322.091V77.0859Z" fill="#7EE8A0"/>
</mask>
<g mask="url(#mask6_14_315)">
<path d="M22.9735 68.8582L74.1685 88.5134V333.975L31.2012 317.52L22.9735 68.8582Z" fill="#75CF92"/>
</g>
</g>
</g>
<mask id="mask7_14_315" style="mask-type:alpha" maskUnits="userSpaceOnUse" x="44" y="0" width="60" height="270">
<path d="M44 12.7988L73.7114 0L103.423 12.7988V257.803L73.7114 269.231L44 257.803V12.7988Z" fill="#7EE8A0"/>
</mask>
<g mask="url(#mask7_14_315)">
<path d="M22.9735 85.231L74.1685 104.886V350.348L31.2012 333.892L22.9735 85.231Z" fill="#75CF92"/>
</g>
<path d="M59.416 16.2V33H55.528V19.32H52.168V16.2H59.416ZM68.0944 22.512C70.4624 22.512 72.2064 22.984 73.3264 23.928C74.4624 24.872 75.0304 26.136 75.0304 27.72C75.0304 28.744 74.7744 29.68 74.2624 30.528C73.7504 31.36 72.9664 32.032 71.9104 32.544C70.8704 33.04 69.5824 33.288 68.0464 33.288C66.8624 33.288 65.6944 33.136 64.5424 32.832C63.4064 32.512 62.4384 32.064 61.6384 31.488L63.1744 28.512C63.8144 28.992 64.5504 29.368 65.3824 29.64C66.2144 29.896 67.0704 30.024 67.9504 30.024C68.9264 30.024 69.6944 29.832 70.2544 29.448C70.8144 29.064 71.0944 28.528 71.0944 27.84C71.0944 27.12 70.7984 26.576 70.2064 26.208C69.6304 25.84 68.6224 25.656 67.1824 25.656H62.8864L63.7504 16.2H73.9984V19.32H66.9904L66.7264 22.512H68.0944ZM80.2615 25.272C79.0295 25.272 78.0215 24.856 77.2375 24.024C76.4695 23.176 76.0855 22.048 76.0855 20.64C76.0855 19.232 76.4695 18.112 77.2375 17.28C78.0215 16.432 79.0295 16.008 80.2615 16.008C81.4935 16.008 82.4935 16.432 83.2615 17.28C84.0295 18.112 84.4135 19.232 84.4135 20.64C84.4135 22.048 84.0295 23.176 83.2615 24.024C82.4935 24.856 81.4935 25.272 80.2615 25.272ZM90.2695 16.2H93.1255L81.6535 33H78.7975L90.2695 16.2ZM80.2615 23.304C80.8055 23.304 81.2295 23.08 81.5335 22.632C81.8535 22.184 82.0135 21.52 82.0135 20.64C82.0135 19.76 81.8535 19.096 81.5335 18.648C81.2295 18.2 80.8055 17.976 80.2615 17.976C79.7335 17.976 79.3095 18.208 78.9895 18.672C78.6695 19.12 78.5095 19.776 78.5095 20.64C78.5095 21.504 78.6695 22.168 78.9895 22.632C79.3095 23.08 79.7335 23.304 80.2615 23.304ZM91.6615 33.192C90.8615 33.192 90.1415 33.008 89.5015 32.64C88.8775 32.256 88.3895 31.712 88.0375 31.008C87.6855 30.304 87.5095 29.488 87.5095 28.56C87.5095 27.632 87.6855 26.816 88.0375 26.112C88.3895 25.408 88.8775 24.872 89.5015 24.504C90.1415 24.12 90.8615 23.928 91.6615 23.928C92.8935 23.928 93.8935 24.352 94.6615 25.2C95.4455 26.032 95.8375 27.152 95.8375 28.56C95.8375 29.968 95.4455 31.096 94.6615 31.944C93.8935 32.776 92.8935 33.192 91.6615 33.192ZM91.6615 31.224C92.2055 31.224 92.6295 31 92.9335 30.552C93.2535 30.088 93.4135 29.424 93.4135 28.56C93.4135 27.696 93.2535 27.04 92.9335 26.592C92.6295 26.128 92.2055 25.896 91.6615 25.896C91.1335 25.896 90.7095 26.12 90.3895 26.568C90.0695 27.016 89.9095 27.68 89.9095 28.56C89.9095 29.44 90.0695 30.104 90.3895 30.552C90.7095 31 91.1335 31.224 91.6615 31.224Z" fill="#A2DC89"/>
<path d="M9.253 56.1V68H6.499V58.31H4.119V56.1H9.253ZM16.4202 68.204C15.4342 68.204 14.5559 67.9603 13.7852 67.473C13.0146 66.9857 12.4082 66.283 11.9662 65.365C11.5356 64.4357 11.3202 63.3307 11.3202 62.05C11.3202 60.7693 11.5356 59.67 11.9662 58.752C12.4082 57.8227 13.0146 57.1143 13.7852 56.627C14.5559 56.1397 15.4342 55.896 16.4202 55.896C17.4062 55.896 18.2846 56.1397 19.0552 56.627C19.8259 57.1143 20.4266 57.8227 20.8572 58.752C21.2992 59.67 21.5202 60.7693 21.5202 62.05C21.5202 63.3307 21.2992 64.4357 20.8572 65.365C20.4266 66.283 19.8259 66.9857 19.0552 67.473C18.2846 67.9603 17.4062 68.204 16.4202 68.204ZM16.4202 65.875C17.1456 65.875 17.7122 65.5633 18.1202 64.94C18.5396 64.3167 18.7492 63.3533 18.7492 62.05C18.7492 60.7467 18.5396 59.7833 18.1202 59.16C17.7122 58.5367 17.1456 58.225 16.4202 58.225C15.7062 58.225 15.1396 58.5367 14.7202 59.16C14.3122 59.7833 14.1082 60.7467 14.1082 62.05C14.1082 63.3533 14.3122 64.3167 14.7202 64.94C15.1396 65.5633 15.7062 65.875 16.4202 65.875ZM25.6123 62.526C24.7396 62.526 24.0256 62.2313 23.4703 61.642C22.9263 61.0413 22.6543 60.2423 22.6543 59.245C22.6543 58.2477 22.9263 57.4543 23.4703 56.865C24.0256 56.2643 24.7396 55.964 25.6123 55.964C26.485 55.964 27.1933 56.2643 27.7373 56.865C28.2813 57.4543 28.5533 58.2477 28.5533 59.245C28.5533 60.2423 28.2813 61.0413 27.7373 61.642C27.1933 62.2313 26.485 62.526 25.6123 62.526ZM32.7013 56.1H34.7243L26.5983 68H24.5753L32.7013 56.1ZM25.6123 61.132C25.9976 61.132 26.298 60.9733 26.5133 60.656C26.74 60.3387 26.8533 59.8683 26.8533 59.245C26.8533 58.6217 26.74 58.1513 26.5133 57.834C26.298 57.5167 25.9976 57.358 25.6123 57.358C25.2383 57.358 24.938 57.5223 24.7113 57.851C24.4846 58.1683 24.3713 58.633 24.3713 59.245C24.3713 59.857 24.4846 60.3273 24.7113 60.656C24.938 60.9733 25.2383 61.132 25.6123 61.132ZM33.6873 68.136C33.1206 68.136 32.6106 68.0057 32.1573 67.745C31.7153 67.473 31.3696 67.0877 31.1203 66.589C30.871 66.0903 30.7463 65.5123 30.7463 64.855C30.7463 64.1977 30.871 63.6197 31.1203 63.121C31.3696 62.6223 31.7153 62.2427 32.1573 61.982C32.6106 61.71 33.1206 61.574 33.6873 61.574C34.56 61.574 35.2683 61.8743 35.8123 62.475C36.3676 63.0643 36.6453 63.8577 36.6453 64.855C36.6453 65.8523 36.3676 66.6513 35.8123 67.252C35.2683 67.8413 34.56 68.136 33.6873 68.136ZM33.6873 66.742C34.0726 66.742 34.373 66.5833 34.5883 66.266C34.815 65.9373 34.9283 65.467 34.9283 64.855C34.9283 64.243 34.815 63.7783 34.5883 63.461C34.373 63.1323 34.0726 62.968 33.6873 62.968C33.3133 62.968 33.013 63.1267 32.7863 63.444C32.5596 63.7613 32.4463 64.2317 32.4463 64.855C32.4463 65.4783 32.5596 65.9487 32.7863 66.266C33.013 66.5833 33.3133 66.742 33.6873 66.742Z" fill="#E99A3D"/>
</svg>
