<?xml version="1.0" standalone="no"?>
<!DOCTYPE svg PUBLIC "-//W3C//DTD SVG 20010904//EN"
 "http://www.w3.org/TR/2001/REC-SVG-20010904/DTD/svg10.dtd">
<svg version="1.0" xmlns="http://www.w3.org/2000/svg"
 width="736.000000pt" height="736.000000pt" viewBox="0 0 736.000000 736.000000"
 preserveAspectRatio="xMidYMid meet">
<metadata>
Created by potrace 1.14, written by Peter Selinger 2001-2017
</metadata>
<g transform="translate(0.000000,736.000000) scale(0.100000,-0.100000)"
fill="#000000" stroke="none">
<path d="M484 6976 c160 -162 546 -552 858 -867 312 -316 750 -758 973 -984
223 -225 644 -651 935 -945 291 -294 694 -701 895 -905 202 -203 462 -467 579
-585 117 -118 222 -223 233 -233 23 -20 4 -27 248 88 55 25 116 54 135 63 19
9 38 20 41 25 3 5 8 8 10 7 7 -3 51 16 174 75 66 32 147 70 180 85 33 15 114
54 180 85 66 31 152 72 190 90 39 18 103 49 144 69 41 20 80 36 88 36 7 0 13
5 13 10 0 6 4 10 10 10 5 0 52 20 105 45 52 25 137 65 188 89 50 24 133 62
182 86 50 23 120 57 158 76 37 18 68 33 70 33 1 0 66 30 144 67 l142 68 -52
25 c-29 14 -55 30 -59 36 -4 5 -8 7 -8 3 0 -4 -19 3 -42 16 -41 23 -168 88
-498 259 -85 44 -211 109 -280 145 -69 35 -186 96 -260 135 -181 93 -350 182
-490 254 -158 83 -503 260 -630 325 -58 29 -107 55 -110 58 -3 3 -48 26 -100
53 -52 26 -151 77 -220 113 -69 36 -222 115 -340 176 -193 100 -328 170 -385
201 -11 6 -26 12 -33 13 -7 1 -19 8 -27 14 -7 6 -71 41 -142 77 -70 36 -173
89 -228 118 -125 66 -437 226 -530 273 -38 19 -83 43 -98 54 -15 11 -33 21
-40 22 -11 2 -36 15 -210 106 -37 19 -111 57 -164 84 -53 28 -133 70 -177 94
-45 24 -85 45 -91 46 -5 1 -17 6 -25 11 -8 5 -46 26 -85 46 -231 119 -442 228
-520 269 -49 26 -160 84 -245 127 -85 44 -231 120 -325 168 -499 260 -743 385
-748 385 -2 0 127 -132 287 -294z"/>
<path d="M0 3666 c0 -1912 1 -3476 3 -3476 2 0 560 553 1947 1930 479 476
1031 1023 1225 1217 195 193 355 354 355 356 0 3 -48 52 -106 109 -58 57 -159
155 -223 218 -65 63 -270 264 -455 445 -186 182 -396 386 -466 455 -607 594
-812 795 -920 900 -187 182 -880 860 -1190 1164 -80 78 -151 145 -158 150 -9
6 -12 -704 -12 -3468z"/>
<path d="M3122 3023 c-281 -280 -872 -866 -1312 -1303 -441 -437 -990 -983
-1222 -1212 -232 -230 -419 -418 -415 -418 5 0 356 167 400 191 9 5 25 13 35
19 24 13 396 193 402 195 3 0 73 34 155 74 322 157 400 195 408 193 4 -1 7 3
7 8 0 6 4 10 9 10 8 0 197 91 627 301 67 32 126 59 133 59 6 0 11 5 11 10 0 6
9 10 20 10 11 0 20 5 20 10 0 6 6 10 13 10 6 0 55 22 109 49 53 27 99 47 102
44 3 -4 6 -1 6 5 0 7 4 12 9 12 5 0 125 57 267 126 143 69 347 169 454 221
107 52 264 128 348 169 84 41 157 74 162 74 6 0 10 5 10 10 0 6 5 10 11 10 6
0 82 35 168 77 86 42 158 77 161 78 3 1 82 39 175 84 94 46 190 92 215 104 25
11 48 25 51 30 3 5 9 8 13 7 5 -1 151 66 165 76 2 2 -45 51 -105 110 -123 120
-696 681 -932 912 -86 83 -159 152 -162 152 -3 0 -236 -228 -518 -507z"/>
</g>
</svg>
